# xmcd
# 
# Track frame offsets:
#     150
#     20060
#     44730
#     66808
#     82450
#     104210
#     128098
#     154663
#     179208
#     198740
#     219825
#     240493
#     259353
#     277223
#     292030
# 
# Disc length: 4186
# 
# Revision: 2
# Processed by: cddbd v1.5.2PL0 Copyright (c) Steve Scherf et al.
# Submitted via: fre:ac v1.1beta1pre4
# 
DISCID=0010580f
DTITLE=Various Artist - ときめきメモリアル ボーカル・ベスト・コレクション アンコールスペシャル
DYEAR=1999
DGENRE=Game
TTITLE0=菅原祥子/笑顔いっぱい!
TTITLE1=川口雅代/恋はほどほどに
TTITLE2=黒崎彩子/観覧車にのって
TTITLE3=関根明子/風よ
TTITLE4=津野田なるみ/透明な仮面
TTITLE5=五十嵐麗/彼女のように
TTITLE6=鉄砲塚葉子/アンテナ・ライフ
TTITLE7=中友子/手のひらの革命
TTITLE8=よしきくりん/My energy
TTITLE9=栗原みきこ/あなたがいるから
TTITLE10=笹木綾子/Sincerly
TTITLE11=菊池志穂/フィフネルの宇宙服
TTITLE12=上田祐司/女々しい野郎どもの詩
TTITLE13=金月真美/二人の時
TTITLE14=ときめきオールスターズ/ハートのスタートライン
EXTD=
EXTT0=
EXTT1=
EXTT2=
EXTT3=
EXTT4=
EXTT5=
EXTT6=
EXTT7=
EXTT8=
EXTT9=
EXTT10=
EXTT11=
EXTT12=
EXTT13=
EXTT14=
PLAYORDER=
